<?xml version="1.0" standalone="no"?>
<!DOCTYPE svg PUBLIC "-//W3C//DTD SVG 20010904//EN"
 "http://www.w3.org/TR/2001/REC-SVG-20010904/DTD/svg10.dtd">
<svg version="1.0" xmlns="http://www.w3.org/2000/svg"
 width="270.000000pt" height="270.000000pt" viewBox="0 0 270.000000 270.000000"
 preserveAspectRatio="xMidYMid meet">
<metadata>
Created by potrace 1.11, written by Peter Selinger 2001-2013
</metadata>
<g transform="translate(0.000000,270.000000) scale(0.100000,-0.100000)"
fill="#000000" stroke="none">
<path d="M0 1350 l0 -1350 1350 0 1350 0 0 1350 0 1350 -1350 0 -1350 0 0
-1350z m1268 428 l-3 -63 -247 -3 -248 -2 0 -60 0 -60 -65 0 -65 0 0 -190 0
-190 65 0 65 0 0 -55 0 -55 125 0 125 0 0 120 0 120 -60 0 -60 0 0 65 0 65
185 0 185 0 0 -250 0 -250 -310 0 -310 0 0 60 0 59 -62 3 -63 3 -3 58 -3 57
-59 0 -60 0 0 190 0 190 60 0 60 0 0 65 0 65 65 0 65 0 0 60 0 60 310 0 311 0
-3 -62z m872 2 l0 -60 65 0 65 0 -2 -187 -3 -188 -62 -3 -63 -3 0 -59 0 -60
-250 0 -250 0 0 -125 0 -125 -120 0 -120 0 0 435 0 435 370 0 370 0 0 -60z"/>
<path d="M1640 1530 l0 -180 190 0 190 0 0 180 0 180 -190 0 -190 0 0 -180z"/>
</g>
</svg>
